<svg fill="white" viewBox="0 0 24 24" xmlns="http://www.w3.org/2000/svg"><path d="m0 0h24v24h-24z" fill="none"/><path d="m12 2c-5.5 0-10 4.5-10 10s4.5 10 10 10 10-4.5 10-10-4.5-10-10-10zm-5.571 15.571c-1.5-1.5-2.286-3.5-2.286-5.428l7.786 7.714c-2-.071-4-.786-5.5-2.286zm7.285 2.072-9.357-9.357c.786-3.5 3.929-6.143 7.643-6.143 2.643 0 4.929 1.286 6.357 3.214l-1.071.929c-1.216-1.643-3.143-2.716-5.286-2.716-2.786 0-5.143 1.786-6.071 4.286l8.214 8.214c2.071-.714 3.643-2.5 4.143-4.642h-3.429v-1.428h5c0 3.714-2.643 6.857-6.143 7.643z"/></svg>