<svg fill="white" height="32" viewBox="0 0 32 32" width="32" xmlns="http://www.w3.org/2000/svg">
  <path d="m26.297 27.031.031-.063c.031-.047.052-.099.073-.156v-.005c.099-.26.12-.536.073-.813v.01c-.052-.292-.156-.573-.313-.828l.01.01-7.094-12.474-1.083-1.891-8.156 14.365c-.141.25-.229.521-.276.802v.016c-.057.323-.021.651.109.953l-.005-.01c.016.047.042.089.068.135l-.005-.005c.214.365.667.802 1.667.802h13.198c.208 0 1.234-.042 1.708-.849zm-8.302-12.422 6.479 11.396h-12.953zm13.666 10.579-9.354-16.479c-.099-.177-.635-1.052-1.578-1.052-.422 0-1.026.182-1.521 1.047l-1.208 2.12 1.073 1.896 1.667-2.953 9.255 16.245h-3.521c.047.271.021.547-.073.807v-.01c-.021.057-.042.115-.073.167v-.005l-.031.063c-.474.807-1.495.849-1.693.849h5.505c.203 0 1.219-.042 1.693-.849.214-.37.359-.984-.141-1.844zm-21.921 1.89c-.021-.042-.042-.083-.063-.125v-.005c-.13-.302-.172-.63-.115-.953v.01h-7.563l11.24-19.776 3.687 6.484 1.073-1.891-3.219-5.667c-.089-.161-.63-1.036-1.568-1.036-.422 0-1.031.182-1.521 1.052l-11.385 20.016c-.099.172-.568 1.078-.099 1.885.214.37.667.802 1.667.802h9.531c-.99 0-1.453-.427-1.667-.802z"/>
</svg>