<svg fill="white" viewBox="0 0 24 24" xmlns="http://www.w3.org/2000/svg">
  <path d="m19.10767 12.37561q-.17587-.201-.37116-.40308.13641-.14337.264-.28649c1.60583-1.80427 2.28357-3.61371 1.65558-4.70154-.60217-1.043-2.39343-1.35382-4.63593-.91779q-.33132.06482-.659.14624-.06272-.21624-.13343-.43c-.76073-2.29253-1.98963-3.78374-3.24567-3.78295-1.20441.00055-2.36847 1.39709-3.11106 3.5575q-.10959.31969-.20276.64471-.21908-.05375-.44-.0993c-2.366-.48578-4.27167-.16584-4.89844.9226-.601 1.04376.02753 2.74982 1.52851 4.47211q.22329.25562.45922.49976c-.18542.191-.361.38189-.52465.57171-1.4646 1.698-2.05719 3.37616-1.45716 4.41541.61969 1.07348 2.49854 1.42437 4.7854.97436q.278-.05511.55292-.124.10071.35156.22095.697c.73932 2.11706 1.89685 3.46863 3.097 3.4682 1.23944-.00073 2.48194-1.45288 3.23474-3.65875.05945-.17432.11573-.35535.16907-.54175q.35514.08835.71485.1568c2.20336.41687 3.95251.089 4.55145-.951.61848-1.07427-.01922-2.87603-1.55443-4.62975zm-15.03748-4.92377c.38586-.67 1.94324-.93139 3.98608-.512q.19584.04027.39838.09a20.464 20.464 0 0 0 -.42126 2.67767 20.88659 20.88659 0 0 0 -2.10389 1.6936q-.21945-.22695-.42718-.4649l.00006.00006c-1.28607-1.4757-1.79438-2.85546-1.43219-3.48443zm3.88666 5.72809c-.51056-.3866-.98505-.78265-1.41571-1.181.43036-.39587.90515-.79059 1.41467-1.17615q-.0275.58915-.02722 1.1792.00041.58919.02826 1.17795zm-.00061 3.94061a7.23675 7.23675 0 0 1 -2.63971.09314 1.766 1.766 0 0 1 -1.241-.65631c-.36407-.63067.11176-1.978 1.36432-3.43023q.23621-.273.48791-.53174a20.49026 20.49026 0 0 0 2.10712 1.70007 20.80226 20.80226 0 0 0 .42621 2.712q-.25098.06276-.50485.11307zm7.10113-8.03936q-.50309-.317-1.01861-.61365-.5073-.292-1.0268-.56207c.593-.24933 1.17591-.46228 1.73865-.63581a18.21775 18.21775 0 0 1 .30676 1.81153zm-5.37837-3.24597c.63623-1.85114 1.57763-2.98053 2.30352-2.98084.77308-.00037 1.77753 1.21826 2.43433 3.19763q.064.19355.121.38928a20.478 20.478 0 0 0 -2.52716.9712 20.06145 20.06145 0 0 0 -2.519-.98194q.08631-.29992.18731-.59533zm-.40037 1.42379a18.30717 18.30717 0 0 1 1.72967.642q-1.05084.5423-2.04736 1.1814c.08026-.638.18706-1.24927.31769-1.8234zm-.31623 7.66068q.49695.31813 1.00843.61273.52174.30039 1.05737.57556a18.19577 18.19577 0 0 1 -1.74445.66492c-.13214-.58209-.24011-1.2041-.32135-1.85321zm5.45569 3.14551a7.23556 7.23556 0 0 1 -1.23809 2.33325l-.00006.00006a1.76585 1.76585 0 0 1 -1.18841.747c-.72821.00042-1.65766-1.085-2.28992-2.89545q-.11169-.32108-.20551-.648a20.10863 20.10863 0 0 0 2.52918-1.0097 20.79976 20.79976 0 0 0 2.54736.97851q-.07123.24897-.15455.49433zm.36224-1.32422c-.56921-.176-1.16058-.39252-1.76214-.64551q.50867-.2677 1.02472-.56543.52955-.30579 1.0321-.62689a18.1524 18.1524 0 0 1 -.29468 1.83786zm.44629-4.74268q.00111.91095-.05688 1.82044c-.49268.33343-1.01282.659-1.554.97143-.53894.31116-1.07293.59711-1.59674.8559q-.82682-.39624-1.62176-.854-.79047-.455-1.54468-.969-.06894-.90921-.06946-1.82172l.00012.00019q-.00063-.91187.06794-1.82184c.49255-.33637 1.00891-.66168 1.54278-.96991.53632-.30969 1.077-.59442 1.61469-.85248q.81664.39688 1.60382.85065.78992.454 1.549.95868.06519.91443.06524 1.83166zm.95673-5.09283c1.92133-.37372 3.37-.12232 3.73291.50622.3866.66962-.16748 2.1485-1.55383 3.70636l-.00006.00006q-.1149.12891-.23841.25891a20.06118 20.06118 0 0 0 -2.14396-1.68786 20.04054 20.04054 0 0 0 -.40546-2.64893q.31032-.07635.60881-.13476zm-.12988 3.8847a18.16447 18.16447 0 0 1 1.46136 1.18784 18.11912 18.11912 0 0 1 -1.45672 1.20831q.02325-.59391.02288-1.18842-.00027-.604-.02752-1.20773zm3.8681 5.78876c-.36346.63116-1.76788.89435-3.65222.53784q-.32391-.06115-.66474-.14557a20.069 20.069 0 0 0 .38746-2.68176 19.93914 19.93914 0 0 0 2.13708-1.71588q.17643.18329.33563.36487v-.00007a7.23437 7.23437 0 0 1 1.40308 2.23792 1.76563 1.76563 0 0 1 .05371 1.40265zm-8.8186-6.141a1.78593 1.78593 0 1 0 2.43957.65362 1.786 1.786 0 0 0 -2.43954-.65361z"/>
</svg>